<svg width="18" height="21" viewBox="0 0 18 21" fill="none" xmlns="http://www.w3.org/2000/svg">
<path d="M3.75 6.79144C3.75 5.47641 4.30312 4.21524 5.28769 3.28537C6.27226 2.35551 7.60761 1.83311 9 1.83311C10.3924 1.83311 11.7277 2.35551 12.7123 3.28537C13.6969 4.21524 14.25 5.47641 14.25 6.79144C14.25 6.97931 14.329 7.15947 14.4697 7.29231C14.6103 7.42515 14.8011 7.49978 15 7.49978C15.1989 7.49978 15.3897 7.42515 15.5303 7.29231C15.671 7.15947 15.75 6.97931 15.75 6.79144C15.7499 5.70424 15.4554 4.63513 14.8945 3.68573C14.3336 2.73632 13.5249 1.93817 12.5453 1.36713C11.5657 0.796101 10.4478 0.471161 9.29777 0.423199C8.14774 0.375238 7.00383 0.605849 5.97477 1.09311C4.9457 1.58038 4.06568 2.3081 3.41835 3.20712C2.77102 4.10614 2.37789 5.14657 2.27632 6.22953C2.17476 7.31249 2.36813 8.40199 2.83807 9.39447C3.30801 10.387 4.03889 11.2494 4.96125 11.8999C5.75218 12.4579 6.66309 12.8453 7.62975 13.0347C7.76403 13.3192 7.99382 13.5539 8.28358 13.7026C8.57333 13.8513 8.90689 13.9057 9.23266 13.8573C9.55843 13.809 9.85825 13.6606 10.0857 13.4351C10.3132 13.2096 10.4557 12.9196 10.4911 12.61C10.5265 12.3003 10.4529 11.9883 10.2816 11.7221C10.1104 11.456 9.851 11.2505 9.54367 11.1376C9.23635 11.0247 8.89818 11.0105 8.58149 11.0974C8.2648 11.1842 7.98724 11.3672 7.79175 11.618C6.64094 11.361 5.61573 10.7445 4.88217 9.86854C4.14861 8.99254 3.74968 7.9083 3.75 6.79144ZM4.5 6.79144C4.50029 6.00958 4.72895 5.24294 5.16081 4.57589C5.59268 3.90884 6.211 3.36723 6.94775 3.01066C7.68451 2.65409 8.51113 2.49637 9.33667 2.55487C10.1622 2.61336 10.9547 2.8858 11.6268 3.34221C12.299 3.79861 12.8248 4.4213 13.1465 5.14174C13.4681 5.86218 13.5731 6.65245 13.4499 7.42561C13.3266 8.19876 12.98 8.92482 12.448 9.52391C11.916 10.123 11.2194 10.5719 10.4347 10.8212C10.0312 10.5057 9.52382 10.3331 9 10.3331C8.45475 10.3331 7.95525 10.5166 7.56525 10.8212C6.67181 10.5373 5.89531 9.99565 5.34533 9.27262C4.79535 8.54959 4.49966 7.68171 4.5 6.79144ZM9 3.95811C8.20435 3.95811 7.44129 4.25662 6.87868 4.78797C6.31607 5.31933 6 6.04 6 6.79144C6 7.54289 6.31607 8.26356 6.87868 8.79491C7.44129 9.32627 8.20435 9.62478 9 9.62478C9.79565 9.62478 10.5587 9.32627 11.1213 8.79491C11.6839 8.26356 12 7.54289 12 6.79144C12 6.04 11.6839 5.31933 11.1213 4.78797C10.5587 4.25662 9.79565 3.95811 9 3.95811ZM2.625 11.7498H3.64425C4.24715 12.3315 4.95172 12.8108 5.727 13.1664H2.625C2.32663 13.1664 2.04048 13.2784 1.8295 13.4776C1.61853 13.6769 1.5 13.9472 1.5 14.2289V14.5831C1.5 15.6265 2.205 16.672 3.56925 17.4915C4.9245 18.3061 6.84225 18.8331 8.99925 18.8331C11.1578 18.8331 13.0755 18.3061 14.4307 17.4915C15.7957 16.6727 16.5 15.6258 16.5 14.5831V14.2289C16.5 13.9472 16.3815 13.6769 16.1705 13.4776C15.9595 13.2784 15.6734 13.1664 15.375 13.1664H11.1225C11.2941 12.7081 11.2941 12.2081 11.1225 11.7498H15.375C16.0712 11.7498 16.7389 12.011 17.2312 12.4759C17.7234 12.9408 18 13.5714 18 14.2289V14.5831C18 16.2782 16.8577 17.7118 15.2362 18.6865C13.6058 19.6668 11.3985 20.2498 9 20.2498C6.6015 20.2498 4.395 19.6668 2.76375 18.6865C1.14225 17.7118 0 16.2782 0 14.5831V14.2289C0 13.5714 0.276562 12.9408 0.768845 12.4759C1.26113 12.011 1.92881 11.7498 2.625 11.7498Z" fill="black"/>
</svg>
